<svg xmlns="http://www.w3.org/2000/svg" width="46.153" height="46.153" viewBox="0 0 46.153 46.153">
  <path id="Icon_awesome-user-circle" data-name="Icon awesome-user-circle" d="M23.076.563A23.076,23.076,0,1,0,46.153,23.639,23.072,23.072,0,0,0,23.076.563Zm0,8.933a8.188,8.188,0,1,1-8.188,8.188A8.188,8.188,0,0,1,23.076,9.5Zm0,32.009A17.831,17.831,0,0,1,9.445,35.158a10.374,10.374,0,0,1,9.165-5.564,2.277,2.277,0,0,1,.661.1,12.32,12.32,0,0,0,3.806.642,12.273,12.273,0,0,0,3.806-.642,2.277,2.277,0,0,1,.661-.1,10.374,10.374,0,0,1,9.165,5.564A17.831,17.831,0,0,1,23.076,41.5Z" transform="translate(0 -0.563)" fill="#78bdc4"/>
</svg>
