<svg xmlns="http://www.w3.org/2000/svg" width="37.083" height="26.267" viewBox="0 0 37.083 26.267">
  <g id="bed" transform="translate(0 -74.667)">
    <g id="Group_965" data-name="Group 965" transform="translate(0 74.667)">
      <g id="Group_964" data-name="Group 964" transform="translate(0 0)">
        <path id="Path_1597" data-name="Path 1597" d="M43.44,83.938H47.3a.772.772,0,0,1-.749-.96l.481-1.921A2.314,2.314,0,0,1,49.282,79.3h4.974a2.32,2.32,0,0,1,2.318,2.318v1.545a.773.773,0,0,1-.773.773h4.635a.773.773,0,0,1-.773-.773V81.62A2.32,2.32,0,0,1,61.981,79.3h4.974A2.314,2.314,0,0,1,69.2,81.058l.481,1.921a.772.772,0,0,1-.749.96H72.8a.773.773,0,0,0,.773-.773V78.53a3.868,3.868,0,0,0-3.863-3.863H46.53a3.868,3.868,0,0,0-3.863,3.863v4.635A.773.773,0,0,0,43.44,83.938Z" transform="translate(-39.577 -74.667)" fill="#78bdc4"/>
        <path id="Path_1598" data-name="Path 1598" d="M33.22,224H3.863A3.868,3.868,0,0,0,0,227.863v10.816a.773.773,0,0,0,1.545,0v-2.318H35.538v2.318a.773.773,0,0,0,1.545,0V227.863A3.868,3.868,0,0,0,33.22,224Zm2.318,10.816H1.545v-1.545H35.538v1.545Z" transform="translate(0 -213.184)" fill="#78bdc4"/>
      </g>
    </g>
  </g>
</svg>
