<svg xmlns="http://www.w3.org/2000/svg" width="37.694" height="30.283" viewBox="0 0 37.694 30.283">
  <g id="scale" transform="translate(37.694 -50.333) rotate(90)">
    <g id="Group_969" data-name="Group 969" transform="translate(50.333)">
      <g id="Group_968" data-name="Group 968" transform="translate(0)">
        <path id="Path_1610" data-name="Path 1610" d="M63.29.013H51.511a1.178,1.178,0,0,0-1.178,1.178V36.527A1.178,1.178,0,0,0,51.511,37.7H63.29a1.178,1.178,0,0,0,1.178-1.178V1.191A1.178,1.178,0,0,0,63.29.013ZM62.112,35.349H52.689V31.816h5.889V29.46H52.689V25.926h3.534V23.57H52.689V20.037h5.889V17.681H52.689V14.147h3.534V11.792H52.689V8.258h5.889V5.9H52.689V2.369h9.423Z" transform="translate(-50.333 -0.012)" fill="#78bdc4"/>
        <path id="Path_1611" data-name="Path 1611" d="M290.764,29.8l-3.887,3.875V4.018l3.875,3.875,1.661-1.661L286.523.343a1.178,1.178,0,0,0-1.661,0l-5.889,5.889,1.661,1.661,3.887-3.875V33.676L280.646,29.8l-1.661,1.661,5.889,5.889a1.178,1.178,0,0,0,1.661,0l5.889-5.889Z" transform="translate(-262.141 0)" fill="#78bdc4"/>
      </g>
    </g>
  </g>
</svg>
