<svg id="wc" xmlns="http://www.w3.org/2000/svg" width="37.083" height="37.083" viewBox="0 0 37.083 37.083">
  <g id="Group_967" data-name="Group 967">
    <g id="Group_966" data-name="Group 966">
      <path id="Path_1604" data-name="Path 1604" d="M12.361,1.854V.618A.618.618,0,0,0,11.743,0H.618A.618.618,0,0,0,0,.618V1.854a.618.618,0,0,0,.618.618H11.743A.618.618,0,0,0,12.361,1.854Z" fill="#78bdc4"/>
      <path id="Path_1605" data-name="Path 1605" d="M51.577,272.431a9.511,9.511,0,0,1-6.292-7.349.618.618,0,0,0-.618-.55H36.014a.618.618,0,0,0-.618.717c.519,2.855,3.171,4.1,4.845,5.414,2.355,1.854,4.1,4.944,3.22,11.075a.618.618,0,0,0,.618.717h5.7a.618.618,0,0,0,.55-.328c1.341-2.639,1.65-5.9,1.65-9.116A.618.618,0,0,0,51.577,272.431Z" transform="translate(-32.825 -245.373)" fill="#78bdc4"/>
      <path id="Path_1606" data-name="Path 1606" d="M26.956,64.8V55.526h1.236a.618.618,0,1,0,0-1.236H26.956V51.818a.618.618,0,0,0-.618-.618H17.685a.618.618,0,0,0-.618.618V64.8a.618.618,0,0,0,.618.618h8.653A.618.618,0,0,0,26.956,64.8Z" transform="translate(-15.831 -47.492)" fill="#78bdc4"/>
      <path id="Path_1607" data-name="Path 1607" d="M269.753,382.333a.618.618,0,0,0-.613-.623.628.628,0,0,0-.086.005,11.474,11.474,0,0,1-1.774.161h-2.472a11.471,11.471,0,0,1-1.78-.142.618.618,0,0,0-.7.618,23.028,23.028,0,0,1-1.459,7.96.618.618,0,0,0,.569.834h9.209a.618.618,0,0,0,.569-.847A23.039,23.039,0,0,1,269.753,382.333Z" transform="translate(-241.941 -354.063)" fill="#78bdc4"/>
      <path id="Path_1608" data-name="Path 1608" d="M194.462,221.867H171.594a.927.927,0,0,0,0,1.854h22.868a.927.927,0,0,0,0-1.854Z" transform="translate(-158.306 -205.798)" fill="#78bdc4"/>
      <path id="Path_1609" data-name="Path 1609" d="M209.7,264.544a.615.615,0,0,0-.13-.012H190.069a.618.618,0,0,0-.618.742c.754,3.782,4.555,6.675,9.135,6.675h2.472c4.58,0,8.381-2.892,9.129-6.675A.618.618,0,0,0,209.7,264.544Z" transform="translate(-175.718 -245.372)" fill="#78bdc4"/>
    </g>
  </g>
</svg>
