<svg xmlns="http://www.w3.org/2000/svg" width="21.058" height="21.058" viewBox="0 0 21.058 21.058">
  <g id="send" transform="translate(-24.001 -8)">
    <g id="Group_881" data-name="Group 881" transform="translate(24.001 8)">
      <g id="Group_880" data-name="Group 880" transform="translate(0)">
        <path id="Path_1535" data-name="Path 1535" d="M21.055.4a.429.429,0,0,0-.014-.071.475.475,0,0,0-.03-.074C21,.238,21,.224,20.994.211A.282.282,0,0,0,20.975.19a.475.475,0,0,0-.052-.058.447.447,0,0,0-.059-.051c-.008-.005-.013-.013-.021-.018s-.027-.01-.04-.016a.476.476,0,0,0-.076-.031A.482.482,0,0,0,20.66,0a.47.47,0,0,0-.08,0,.411.411,0,0,0-.074.012.422.422,0,0,0-.047.008L.312,6.889a.457.457,0,0,0-.016.86l9.413,3.617,4.067,9.416a.458.458,0,0,0,.42.276h.023a.458.458,0,0,0,.413-.318L21.043.592a.342.342,0,0,0,.006-.043.433.433,0,0,0,.011-.076A.456.456,0,0,0,21.055.4ZM1.8,7.347,18.89,1.522,9.939,10.473ZM14.13,19.294,10.6,11.111l9-9Z" transform="translate(-0.002 0)" fill="#012c3d"/>
        <path id="Path_1536" data-name="Path 1536" d="M7.193,240.052a.457.457,0,0,0-.647,0l-6.41,6.41a.458.458,0,1,0,.647.647l6.41-6.41A.457.457,0,0,0,7.193,240.052Z" transform="translate(-0.001 -226.186)" fill="#012c3d"/>
        <path id="Path_1537" data-name="Path 1537" d="M91.34,296.052l-3.205,3.205a.458.458,0,1,0,.647.647l3.205-3.205a.458.458,0,0,0-.647-.647Z" transform="translate(-82.964 -278.981)" fill="#012c3d"/>
        <path id="Path_1538" data-name="Path 1538" d="M.459,212.039a.457.457,0,0,0,.324-.134L3.988,208.7a.458.458,0,1,0-.647-.647L.135,211.257a.458.458,0,0,0,.324.782Z" transform="translate(-0.001 -196.018)" fill="#012c3d"/>
      </g>
    </g>
  </g>
</svg>
