<svg xmlns="http://www.w3.org/2000/svg" width="27.694" height="27.555" viewBox="0 0 27.694 27.555">
  <g id="edit" transform="translate(0 -0.261)">
    <path id="Path_1643" data-name="Path 1643" d="M25.561,53.781a.69.69,0,0,0-.69.69v6.124A2.071,2.071,0,0,1,22.8,62.664H3.449a2.071,2.071,0,0,1-2.069-2.069V42.621a2.072,2.072,0,0,1,2.069-2.069H9.573a.69.69,0,0,0,0-1.379H3.449A3.453,3.453,0,0,0,0,42.621V60.595a3.453,3.453,0,0,0,3.449,3.449H22.8a3.453,3.453,0,0,0,3.449-3.449V54.47a.69.69,0,0,0-.69-.69Zm0,0" transform="translate(0 -36.228)" fill="#78bdc4"/>
    <path id="Path_1644" data-name="Path 1644" d="M126.705,1.17a3.1,3.1,0,0,0-4.389,0L110.011,13.475a.69.69,0,0,0-.177.3l-1.618,5.842a.69.69,0,0,0,.849.849l5.842-1.618a.69.69,0,0,0,.3-.177l12.3-12.306a3.107,3.107,0,0,0,0-4.389ZM111.513,13.923,121.584,3.852,124.832,7.1,114.761,17.171Zm-.649,1.3,2.595,2.6-3.589.994Zm15.675-9.832-.731.731L122.56,2.877l.732-.731a1.724,1.724,0,0,1,2.438,0l.81.809A1.727,1.727,0,0,1,126.539,5.393Zm0,0" transform="translate(-100.728)" fill="#78bdc4"/>
  </g>
</svg>
