<svg id="Group_182" data-name="Group 182" xmlns="http://www.w3.org/2000/svg" width="42.724" height="42.724" viewBox="0 0 42.724 42.724">
  <path id="Path_97" data-name="Path 97" d="M26.362,5A21.362,21.362,0,1,0,47.724,26.362,21.386,21.386,0,0,0,26.362,5Zm0,40.35A18.988,18.988,0,1,1,45.35,26.362,19.01,19.01,0,0,1,26.362,45.35Z" transform="translate(-5 -5)" fill="#78bdc4"/>
  <circle id="Ellipse_131" data-name="Ellipse 131" cx="2.698" cy="2.698" r="2.698" transform="translate(27.094 14.676)" fill="#78bdc4"/>
  <circle id="Ellipse_132" data-name="Ellipse 132" cx="2.698" cy="2.698" r="2.698" transform="translate(10.234 14.676)" fill="#78bdc4"/>
  <path id="Path_98" data-name="Path 98" d="M47,58.673a11.623,11.623,0,0,1-15.281,0,1.187,1.187,0,1,0-1.579,1.772,14.025,14.025,0,0,0,18.44,0A1.187,1.187,0,1,0,47,58.673Z" transform="translate(-17.996 -33.036)" fill="#78bdc4"/>
</svg>
