<svg xmlns="http://www.w3.org/2000/svg" width="50.904" height="48.609" viewBox="0 0 50.904 48.609">
  <g id="star" transform="translate(0 -11.538)">
    <path id="Path_1645" data-name="Path 1645" d="M55.761,36.057l-16-1.484L33.4,19.811a1.282,1.282,0,0,0-2.356,0L24.687,34.573l-16,1.484a1.282,1.282,0,0,0-.728,2.24L20.03,48.905,16.5,64.585A1.282,1.282,0,0,0,18.4,65.969l13.82-8.206,13.82,8.206a1.282,1.282,0,0,0,1.906-1.385L44.414,48.905,56.488,38.3A1.282,1.282,0,0,0,55.761,36.057Z" transform="translate(-6.77 -6.753)" fill="#78bdc4"/>
    <path id="Path_1646" data-name="Path 1646" d="M33.4,19.811a1.282,1.282,0,0,0-2.356,0L24.687,34.573l-16,1.484a1.282,1.282,0,0,0-.728,2.24L20.03,48.905,16.5,64.585A1.282,1.282,0,0,0,18.4,65.969l3.084-1.832A56.562,56.562,0,0,1,36.543,27.11Z" transform="translate(-6.77 -6.753)" fill="#78bdc4"/>
    <path id="Path_1647" data-name="Path 1647" d="M131.844,102.116a2,2,0,0,0-1.742-1.393L114.539,99.28l-3.085-7.164a.746.746,0,0,0-1.37.59l3.26,7.57a.746.746,0,0,0,.616.447l16,1.484a.537.537,0,0,1,.3.938l-12.075,10.608a.745.745,0,0,0-.235.724l3.534,15.679a.537.537,0,0,1-.8.58l-13.82-8.206a.746.746,0,0,0-.761,0l-13.82,8.206a.537.537,0,0,1-.8-.58l1.824-8.093a.746.746,0,0,0-1.455-.328l-1.824,8.094a2.028,2.028,0,0,0,3.014,2.19l13.439-7.98,13.439,7.98a2,2,0,0,0,2.227-.1,2,2,0,0,0,.786-2.087l-3.436-15.247,11.743-10.315A2,2,0,0,0,131.844,102.116Z" transform="translate(-81.043 -72.161)" fill="#012c3d"/>
    <path id="Path_1648" data-name="Path 1648" d="M11.541,46.387A.746.746,0,1,0,13,46.715l.991-4.4a.745.745,0,0,0-.235-.724L1.677,30.985a.537.537,0,0,1,.3-.938l16-1.484a.746.746,0,0,0,.616-.447l6.357-14.762a.537.537,0,0,1,.986,0l1.727,4.009a.746.746,0,0,0,1.37-.59l-1.727-4.009a2.028,2.028,0,0,0-3.725,0L17.407,27.119,1.844,28.562A2.028,2.028,0,0,0,.693,32.105L12.435,42.421Z" transform="translate(0)" fill="#012c3d"/>
  </g>
</svg>
