<svg xmlns="http://www.w3.org/2000/svg" width="61.796" height="61.796" viewBox="0 0 61.796 61.796">
  <path id="Icon_ionic-ios-checkmark-circle" data-name="Icon ionic-ios-checkmark-circle" d="M34.273,3.375a30.9,30.9,0,1,0,30.9,30.9A30.893,30.893,0,0,0,34.273,3.375Zm15.82,22.357L30.233,45.682h-.015a2.683,2.683,0,0,1-1.723.817,2.6,2.6,0,0,1-1.738-.847l-8.319-8.319a.592.592,0,0,1,0-.847l2.644-2.644a.574.574,0,0,1,.832,0l6.6,6.6L46.632,22.181A.587.587,0,0,1,47.048,22h0a.539.539,0,0,1,.416.178l2.6,2.689A.586.586,0,0,1,50.094,25.732Z" transform="translate(-3.375 -3.375)" fill="#56c17c"/>
</svg>
