<svg xmlns="http://www.w3.org/2000/svg" width="57.374" height="39.72" viewBox="0 0 57.374 39.72">
  <g id="Icon_ionic-ios-mail" data-name="Icon ionic-ios-mail" transform="translate(-3.375 -7.875)">
    <path id="Path_1590" data-name="Path 1590" d="M60.28,10.4,45.44,25.514a.267.267,0,0,0,0,.386L55.825,36.962a1.79,1.79,0,0,1,0,2.538,1.8,1.8,0,0,1-2.538,0L42.944,28.48a.283.283,0,0,0-.4,0L40.02,31.045A11.1,11.1,0,0,1,32.1,34.383a11.327,11.327,0,0,1-8.082-3.434L21.594,28.48a.283.283,0,0,0-.4,0L10.85,39.5a1.8,1.8,0,0,1-2.538,0,1.79,1.79,0,0,1,0-2.538L18.7,25.9a.294.294,0,0,0,0-.386L3.844,10.4a.272.272,0,0,0-.469.193V40.837a4.426,4.426,0,0,0,4.413,4.413H56.336a4.426,4.426,0,0,0,4.413-4.413V10.592A.276.276,0,0,0,60.28,10.4Z" transform="translate(0 2.345)" fill="#78bdc4"/>
    <path id="Path_1591" data-name="Path 1591" d="M31.244,33.128a7.5,7.5,0,0,0,5.393-2.262L58.276,8.84a4.335,4.335,0,0,0-2.731-.965H6.957a4.306,4.306,0,0,0-2.731.965L25.865,30.866A7.5,7.5,0,0,0,31.244,33.128Z" transform="translate(0.818 0)" fill="#78bdc4"/>
  </g>
</svg>
