<svg xmlns="http://www.w3.org/2000/svg" width="56.543" height="56.543" viewBox="0 0 56.543 56.543">
  <path id="Icon_awesome-user-circle" data-name="Icon awesome-user-circle" d="M28.272.563A28.272,28.272,0,1,0,56.543,28.834,28.267,28.267,0,0,0,28.272.563Zm0,10.944A10.032,10.032,0,1,1,18.24,21.538,10.032,10.032,0,0,1,28.272,11.506Zm0,39.216a21.845,21.845,0,0,1-16.7-7.775A12.71,12.71,0,0,1,22.8,36.13a2.789,2.789,0,0,1,.809.125,15.094,15.094,0,0,0,4.663.787,15.036,15.036,0,0,0,4.663-.787,2.789,2.789,0,0,1,.809-.125,12.71,12.71,0,0,1,11.229,6.817A21.845,21.845,0,0,1,28.272,50.722Z" transform="translate(0 -0.563)" fill="#78bdc4"/>
</svg>
